<svg xmlns="http://www.w3.org/2000/svg" viewBox="0 0 32 32" width="32" height="32">
  <rect width="32" height="32" rx="8" fill="#6366f1"/>
  <svg x="7" y="7" width="18" height="18" viewBox="0 0 24 24" fill="none" stroke="white" stroke-width="2.5" stroke-linecap="round" stroke-linejoin="round">
    <path d="M12 5a3 3 0 1 0-5.997.125 4 4 0 0 0-2.526 5.77 4 4 0 0 0 .52 5.886 3 3 0 1 0 5.174 3.09" />
    <path d="M12 5a3 3 0 1 1 5.997.125 4 4 0 0 1 2.526 5.77 4 4 0 0 1-.52 5.886 3 3 0 1 1-5.174 3.09" />
    <path d="M12 19V5" />
  </svg>
</svg>
